Coordinates
version=1
nRows=12
nColumns=33
inDegrees=yes

Units are S.I. units (second, meters, Newtons, ...)
Angles are in degrees.

endheader
time	ground_thorax_rot_x	ground_thorax_rot_y	ground_thorax_rot_z	ground_thorax_tx	ground_thorax_ty	ground_thorax_tz	clav_prot_r	clav_elev_r	scapula_abduction_r	scapula_elevation_r	scapula_upward_rot_r	scapula_winging_r	shoulder_elv_r	plane_of_elev_r	axial_rot_r	elbow_flexion_r	pro_sup_r	wrist_flex_r	wrist_dev_r	clav_prot_l	clav_elev_l	scapula_abduction_l	scapula_elevation_l	scapula_upward_rot_l	scapula_winging_l	shoulder_elv_l	plane_of_elev_l	axial_rot_l	elbow_flexion_l	pro_sup_l	wrist_flex_l	wrist_dev_l	
1.7400	1.419783	1.879859	-2.083365	-0.142056	0.988563	0.005505	-7.748356	-1.078256	-9.342086	4.678097	3.760959	-0.364756	47.808210	-34.452491	36.709088	81.550190	-13.972602	7.966760	-2.198608	-2.678931	-1.931753	1.857932	-5.881070	-4.037915	-0.283024	40.192193	-39.251599	-11.064658	86.476867	21.078266	-6.163725	-4.288793	
1.7500	1.403302	1.922197	-2.051425	-0.141878	0.988563	0.005473	-7.647232	-1.277488	-9.191281	4.569808	3.576449	-0.316249	47.519010	-33.585300	35.672555	81.042137	-14.653665	6.548578	-1.530410	-2.644049	-2.105864	1.784611	-5.753242	-4.117576	-0.307826	40.325079	-37.933580	-10.662672	86.306924	21.111204	-4.242039	-2.483246	
1.7600	1.381158	1.962072	-2.009063	-0.141747	0.988533	0.005440	-7.524030	-1.486009	-9.013680	4.465355	3.361802	-0.263794	47.225942	-32.644340	34.621245	80.407018	-15.359355	5.133133	-0.874495	-2.589211	-2.285829	1.669031	-5.614621	-4.183540	-0.320935	40.458428	-36.537112	-10.290390	85.954706	21.057638	-2.329471	-0.672492	
1.7700	1.359203	1.996448	-1.957214	-0.141640	0.988521	0.005399	-7.386449	-1.727268	-8.807769	4.336742	3.133054	-0.207637	46.949759	-31.659805	33.594307	79.633650	-16.031556	3.815312	-0.283729	-2.515877	-2.498478	1.503226	-5.435857	-4.224495	-0.323148	40.577748	-35.105655	-9.943694	85.379626	20.919406	-0.569772	1.015524	
1.7800	1.333297	2.024632	-1.944379	-0.141573	0.988483	0.005352	-7.230557	-1.994732	-8.574054	4.194035	2.880149	-0.146198	46.668999	-30.580312	32.516178	78.717796	-16.707417	2.499477	0.287908	-2.419131	-2.727767	1.284432	-5.233649	-4.244684	-0.312082	40.685536	-33.574925	-9.591001	84.582513	20.678441	1.142520	2.681335	
1.7900	1.303317	2.047165	-1.936869	-0.141551	0.988419	0.005290	-7.048581	-2.283205	-8.304913	4.046872	2.591513	-0.080682	46.403583	-29.425927	31.413773	77.648057	-17.359029	1.187474	0.842404	-2.290690	-2.970286	1.003712	-5.016977	-4.258096	-0.286022	40.787895	-31.976855	-9.240513	83.554638	20.333703	2.803914	4.304363	
1.8000	1.260129	2.065097	-1.958428	-0.141600	0.988268	0.005219	-6.830692	-2.577775	-8.002106	3.921154	2.236579	-0.007060	46.140893	-28.145666	30.217404	76.423410	-18.030641	-0.246608	1.452058	-2.121905	-3.203454	0.663163	-4.819230	-4.295391	-0.246300	40.920865	-30.253397	-8.874661	82.324101	19.877207	4.594277	6.032341	
1.8100	1.205638	2.077598	-1.952151	-0.141697	0.988088	0.005135	-6.578643	-2.886600	-7.660738	3.804388	1.827829	0.072291	45.902138	-26.804670	29.004090	75.029585	-18.663757	-1.733719	2.089346	-1.911556	-3.446118	0.260092	-4.626495	-4.364890	-0.197046	41.101192	-28.496712	-8.526995	80.884757	19.360895	6.430396	7.768655	
1.8200	1.140060	2.087751	-1.946379	-0.141837	0.987874	0.005044	-6.300315	-3.211539	-7.288473	3.689951	1.377133	0.156379	45.674868	-25.388949	27.754474	73.456430	-19.254282	-3.272527	2.765770	-1.661062	-3.699878	-0.201641	-4.438641	-4.470145	-0.139443	41.341533	-26.686134	-8.198753	79.229228	18.779544	8.300891	9.493272	
1.8300	1.062774	2.095937	-1.896776	-0.142006	0.987657	0.004945	-5.997364	-3.551957	-6.878265	3.569473	0.907152	0.238815	45.460397	-23.952460	26.532413	71.689358	-19.770755	-4.803839	3.464270	-1.370358	-3.961363	-0.727375	-4.252134	-4.594663	-0.068160	41.629022	-24.891938	-7.927591	77.343993	18.145595	10.106410	11.114039	
1.8400	0.980305	2.100856	-1.836890	-0.142196	0.987440	0.004842	-5.676942	-3.909494	-6.434507	3.434338	0.435313	0.317162	45.250846	-22.483254	25.325128	69.729452	-20.224425	-6.323346	4.194612	-1.043650	-4.232971	-1.314115	-4.059799	-4.726361	0.017948	41.942783	-23.094770	-7.693307	75.219871	17.459441	11.830409	12.621380	
1.8500	0.904898	2.096785	-1.765042	-0.142387	0.987269	0.004733	-5.342694	-4.293502	-5.945945	3.262239	-0.003876	0.384113	45.060782	-21.021167	24.193992	67.580631	-20.592947	-7.753229	4.920508	-0.686079	-4.529544	-1.968588	-3.833706	-4.829830	0.123390	42.237378	-21.346721	-7.494253	72.842519	16.762956	13.364560	13.922113	
